<svg xmlns="http://www.w3.org/2000/svg" viewBox="0 0 335.59 336.03"><g id="圖層_2" data-name="圖層 2"><g id="圖層_1-2" data-name="圖層 1"><path d="M167.87,156.76c-4.16-1.41-8.26-2.23-11.81-4.1Q88.56,117.17,21.2,81.42a17.84,17.84,0,0,1-1.94-1.13c-3-2.15-5.89-4.47-5.69-8.64s3.47-5.81,6.69-7.26Q83.64,35.82,147,7.31c4.2-1.89,8.45-3.66,12.67-5.51a19.41,19.41,0,0,1,16.31,0c15.6,6.93,31.21,13.82,46.77,20.82q46,20.69,92,41.5a20.65,20.65,0,0,1,3.3,1.72c4.25,2.91,5.1,7.26,1.82,11.26a19.17,19.17,0,0,1-5.83,4.52q-67,35.58-134.16,71C176.24,154.48,172,155.34,167.87,156.76Z"/><path d="M155.9,257.18q0,33.94,0,67.88c0,9.42-7.1,13.61-15.5,9.15q-64.05-34-128.09-68C4.15,261.83.07,255.49.1,246c.16-44.26.3-88.51-.1-132.77-.09-9.83,8.68-13.25,15.75-9.52,42.77,22.53,85.73,44.72,128.64,67,7.72,4,11.58,10.16,11.54,19C155.84,212.17,155.9,234.68,155.9,257.18Z"/><path d="M179.86,256.94c0-22.38.08-44.76,0-67.14,0-9,3.89-15.14,11.74-19.21q64-33.21,128.08-66.46a16.41,16.41,0,0,1,6.66-2.06c5.45-.18,9.26,3.88,9.27,9.55q0,68.25,0,136.52c0,8-4.13,13.66-11.06,17.36Q298,279.65,271.37,293.77l-74.92,39.85c-.88.47-1.75,1-2.66,1.37-7.16,3.16-13.91-1.19-13.92-9Q179.83,291.45,179.86,256.94Z"/></g></g></svg>